<svg id="Layer_1" data-name="Layer 1" xmlns="http://www.w3.org/2000/svg" viewBox="0 0 257.95 257.95"><defs><style>.cls-1{fill:#bf2c28;}.cls-2{fill:#fff;}</style></defs><circle class="cls-1" cx="128.98" cy="128.98" r="127.56"/><path class="cls-2" d="M119.66,79.65c0-4.93-.72-10.3-1.59-12.18a7.69,7.69,0,0,1-.73-2.9,1.69,1.69,0,0,1,1.89-1.6c2.61,0,7.25,1,12.9,3.92,3.19,1.74,4.64,2.9,4.64,4.78a8.53,8.53,0,0,1-1.16,3.92c-.87,1.74-1.45,4.21-1.74,9-.29,14.79-1.45,26.39-3.33,36a295.18,295.18,0,0,0,36.25,37.7c5.8,5.08,14.65,10,25.24,15.37,1.74.87,2.75,2,2.75,3.34s-1,1.88-2.9,2.32c-4.64,1-15.95,1.74-20.3,1.74-4.79,0-6-.58-10-5.8-11.89-15.23-21.32-27-33.93-43.36a71,71,0,0,1-14.51,25.23c-9.71,11.31-23.2,20.16-39.88,25.09-1.59,0-3-.58-3-1.74,0-1.31.72-2,2.32-2.9,12-6.53,23.64-16.1,31-26.68,9.57-13.78,16.1-28,16.1-62.22ZM97.33,107.78a17.41,17.41,0,0,1,2.9,9.43c0,4.79-2.18,9-6.67,9-5.08,0-7.83-4.93-9.14-10a63.88,63.88,0,0,1-2.17-16.54c0-2.17.29-4.2,1.59-4.2C86.6,95.46,93.7,101.26,97.33,107.78Zm44.08,3.63c8.12-5.8,14.36-11,17.55-15.52a7.57,7.57,0,0,0,1.74-4.35c0-3.19.44-4.78,2.47-4.78s4.78,1.88,8,4.78c4.5,4.21,5.66,6.09,5.66,8.12,0,1.6-1.31,2.9-2.61,3.77a127,127,0,0,1-28.28,11.17,19,19,0,0,1-4.64.73c-.73,0-1.31-.87-1.31-1.6A2.38,2.38,0,0,1,141.41,111.41Z"/></svg>