<svg id="Layer_1" data-name="Layer 1" xmlns="http://www.w3.org/2000/svg" viewBox="0 0 257.95 257.95"><defs><style>.cls-1{fill:#2d5a7b;}.cls-2{fill:#fff;}</style></defs><circle class="cls-1" cx="128.98" cy="128.98" r="127.56"/><path class="cls-2" d="M64.73,167.41a3.85,3.85,0,0,1-1.74.43,1.83,1.83,0,0,1-2-1.59,2.61,2.61,0,0,1,1.16-2.32C79.81,149,90,134.34,97.51,117.08c-7,1.6-13.78,3-21.76,5.37a5.06,5.06,0,0,1-3.48-1.16c-2.46-1.74-6.23-5.51-6.23-6.53,0-1.3.58-1.88,2.32-2.17A295.43,295.43,0,0,0,99.1,106.5a5.37,5.37,0,0,0,2-1.16,3.75,3.75,0,0,1,2.76-1.45c2.17,0,5.94,3.19,10.15,6.81a4.51,4.51,0,0,1,1.74,2.9c0,2.61-1.89,4.5-3.77,6.1C97.8,144.06,86.63,158.13,64.73,167.41Z"/><path class="cls-2" d="M133.47,109c8-4.64,16.53-11.31,24.37-17.54,2.75-2.18,3.19-3.19,3.77-5.37.43-2,1-2.9,2-2.9,2,0,5.51,2.47,10,7.25,1.89,2.18,2.47,3.48,2.47,5.37,0,2.61-1.16,3.33-5.8,5.07a221.94,221.94,0,0,1-34.37,13.49,431.65,431.65,0,0,0,35.38,28.13c4.79,3,10.15,6.38,14.07,8.56,4.2,2.32,6.09,3.33,9,4.93,1.6.87,2.61,1.74,2.61,2.61,0,1.45-.58,2-2.61,2.76-3.63,1.3-13.49,2.9-18.42,2.9-3.33,0-4.49-.15-7-2.9q-17.83-18.93-35.67-38.72V142c0,13.34.43,24.8.43,30.45a30.36,30.36,0,0,1-4.64,15.08c-1.88,2.61-3.33,3.34-4.78,3.34-1.74,0-3.77-1-8.85-6.24-8.12-7.83-10.3-10.58-10.3-12,0-1.16.73-1.45,1.74-1.6,5.08.73,10.3,1.31,13.35,1.45V88.37c0-7.25-1-13.78-1.89-16.24a11.71,11.71,0,0,1-.87-3.77c0-.87.72-1.31,2.18-1.31a40.4,40.4,0,0,1,12.76,3.63c2.9,1.59,3.91,2.75,3.91,3.91a11.94,11.94,0,0,1-1.3,4.93,23.33,23.33,0,0,0-1.6,8.71Z"/></svg>