<svg id="Layer_1" data-name="Layer 1" xmlns="http://www.w3.org/2000/svg" viewBox="0 0 257.95 257.95"><defs><style>.cls-1{fill:#1c7d6c;}.cls-2{fill:#fff;}</style></defs><circle class="cls-1" cx="128.98" cy="128.98" r="127.56"/><path class="cls-2" d="M131.22,100.12c7.55-.73,14.51-1.45,20.89-2a22.79,22.79,0,0,0,10.58-3c8.12,1,14.94,5.51,14.94,10,0,2.17-1.3,3.77-6.09,3.91-4.06-.14-7.83-.29-11.6-.29-8.12,0-17.26.44-27,1.31,14.07,16.24,25.67,26.54,38.14,35.53a97.21,97.21,0,0,0,12.62,7.54,109.79,109.79,0,0,1,9.86,5.22c1.31.87,2,1.6,2,2.61,0,1.16-.87,1.89-2.32,2.18a114.28,114.28,0,0,1-19.58,2c-4.2,0-5.51-.73-7.83-3.19a498.18,498.18,0,0,1-35.09-41.77c.29,20,.58,45.25.72,62.21,0,6.24-2.17,9-5.65,9-2.76,0-5.08-2.32-6.67-5.22-1.45-2.61-2.32-7.68-2.32-9.86,1.3-5.07,1.74-8.12,2-50.9-13.2,18-31.62,30-50.18,38.43a11.36,11.36,0,0,1-4.35,1.16c-1.16,0-2-.58-2-1.59s.29-1.45,1.74-2.47c17.84-12.47,37.13-28.13,48.73-48.73-9.86,1.16-19.87,2.47-29.59,3.92-1.45,0-2.75-1-4.06-2.47-3.77-3.91-4.64-6.09-4.64-7.1,0-.73.15-1,3-1.31,14.93-1.3,28.71-2.61,41.18-3.77V91.85c0-12.76-.43-17.55-1.74-20.16a7.92,7.92,0,0,1-1-3.48c0-.72.72-1.59,2.17-1.59,3.34,0,9,1.74,12.62,3.62,2.46,1.31,3.62,2.47,3.62,3.77a7.9,7.9,0,0,1-1.3,3.77c-1.31,2.18-1.89,8-1.89,17.7Z"/></svg>