<svg id="Layer_1" data-name="Layer 1" xmlns="http://www.w3.org/2000/svg" viewBox="0 0 257.95 257.95"><defs><style>.cls-1{fill:#8e949b;}.cls-2{fill:#fff;}</style></defs><circle class="cls-1" cx="128.98" cy="128.98" r="127.56"/><path class="cls-2" d="M119.33,121.63c0-4.64,0-5.51-1.16-8.85-3.33.44-6.67.87-10,1.45-1.74,0-3-.29-4.06-1.45-3-3.34-4.21-4.79-4.21-6.24a131,131,0,0,1-32.19,22,9.33,9.33,0,0,1-3.34.72,1.73,1.73,0,0,1-1.74-1.45c0-1,.29-1.74,2-3.19,19.72-15.52,34.51-31.76,47.28-53.95,2.32-4.49,3.91-8,3.91-10.29a27.15,27.15,0,0,0-.43-4.35c0-1.31.87-1.74,1.88-1.74,2.18,0,6.82,2,13.63,6.67a4,4,0,0,1,1.74,3,4.58,4.58,0,0,1-1.16,3.19c.58.58,1.31,1.31,2,2.18A286,286,0,0,0,165.59,99,96.53,96.53,0,0,0,181,108.86c4.06,2,7.68,4.21,11.45,6.53,1.45.87,2.9,2,2.9,2.9,0,1.6-1.16,2-3,2.61a67.41,67.41,0,0,1-18.42,2.18c-4.35,0-6.09-1.16-9.57-4.93C152,104.51,140.22,90.74,126.44,74.06a169.7,169.7,0,0,1-25.38,31.32l1.16-.14c12.33-1,21.46-2.18,30.74-3.77a14.71,14.71,0,0,0,5.52-2.18c6.23,1.6,10.87,4.21,10.87,7.11,0,2.46-1.74,3.19-6.23,3.63s-9.43.87-14.36,1.45c3.19,2,4.2,3.19,4.2,4.93a11.5,11.5,0,0,1-.43,2.32,21,21,0,0,0-.58,4.06v2.75l11-1.3a21.62,21.62,0,0,0,8.41-2.32c6,.72,12.18,4.78,12.18,7.54,0,2.32-1.16,3.19-5.22,3.33-7.39.29-16.67,1-26.54,1.89l-.43,30.74c7.54-.43,14.07-.72,20-.87a31,31,0,0,0,10.59-2c8.26,1.74,13.2,6.09,13.2,9.28,0,2.61-1.6,3.48-5.95,3.48-10.3-.29-14.36-.29-22.62-.29a452,452,0,0,0-60.48,3.92c-1.45,0-3-.58-4.93-3.19-2.75-3.92-3.19-4.79-3.19-5.37,0-.87.58-1.3,2.61-1.45,14.5-1.16,27.41-2,38.72-2.75V136c-8,.73-15.8,1.74-23.06,2.61-1.45,0-3-.72-4.78-2.9-2-2.61-3-4.2-3-5.22,0-.72.58-1.16,2-1.3,11-.87,20.6-1.74,28.86-2.47Z"/><path class="cls-2" d="M94.1,143.67c0-1.16.29-2,1.45-2,3.33,0,8.27,2.61,12.33,6.53,3.19,3.19,5.07,6.52,5.07,10,0,3.92-2.46,6.38-5.8,6.38-3.62,0-6.52-2.9-8.56-7.25C96,151.79,94.1,146.13,94.1,143.67Z"/><path class="cls-2" d="M137,159.19A63.26,63.26,0,0,0,146.45,144a6,6,0,0,0,.73-2.76,9.58,9.58,0,0,0-.58-3.33,1.71,1.71,0,0,1,1.88-1.74c2.47,0,6.38,1.45,10.73,4.93,1.6,1.16,2.9,2.9,2.9,4.49,0,1.31-.87,2.33-2.46,3.78a105.94,105.94,0,0,1-20.88,13.92,3.87,3.87,0,0,1-2,.43,1.59,1.59,0,0,1-1.45-1.59C135.28,161.22,136,160.35,137,159.19Z"/></svg>