<?xml version="1.0" encoding="utf-8"?>
<!-- Generator: Adobe Illustrator 24.3.0, SVG Export Plug-In . SVG Version: 6.00 Build 0)  -->
<svg version="1.1" id="Layer_1" xmlns="http://www.w3.org/2000/svg" xmlns:xlink="http://www.w3.org/1999/xlink" x="0px" y="0px"
	 width="258px" height="258px" viewBox="0 0 258 258" style="enable-background:new 0 0 258 258;" xml:space="preserve">
<style type="text/css">
	.st0{fill:#223348;}
	.st1{fill:#FFFFFF;}
</style>
<circle class="st0" cx="129" cy="129" r="127.6"/>
<path class="st1" d="M64.7,167.4c-0.5,0.3-1.1,0.4-1.7,0.4c-1,0.1-1.9-0.6-2-1.6c-0.1-0.9,0.4-1.8,1.2-2.3
	C79.8,149,90,134.3,97.5,117.1c-7,1.6-13.8,3-21.8,5.4c-1.3,0.1-2.5-0.4-3.5-1.2c-2.5-1.7-6.2-5.5-6.2-6.5c0-1.3,0.6-1.9,2.3-2.2
	c10.3-1.5,20.6-3.5,30.7-6.1c0.7-0.2,1.4-0.6,2-1.2c0.7-0.9,1.7-1.4,2.8-1.4c2.2,0,5.9,3.2,10.2,6.8c0.9,0.7,1.6,1.7,1.7,2.9
	c0,2.6-1.9,4.5-3.8,6.1C97.8,144.1,86.6,158.1,64.7,167.4z"/>
<path class="st1" d="M133.5,109c8-4.6,16.5-11.3,24.4-17.5c2.8-2.2,3.2-3.2,3.8-5.4c0.4-2,1-2.9,2-2.9c2,0,5.5,2.5,10,7.2
	c1.9,2.2,2.5,3.5,2.5,5.4c0,2.6-1.2,3.3-5.8,5.1c-11.1,5.4-22.6,10-34.4,13.5c11.3,10,23.1,19.4,35.4,28.1c4.8,3,10.1,6.4,14.1,8.6
	c4.2,2.3,6.1,3.3,9,4.9c1.6,0.9,2.6,1.7,2.6,2.6c0,1.4-0.6,2-2.6,2.8c-3.6,1.3-13.5,2.9-18.4,2.9c-3.3,0-4.5-0.1-7-2.9
	c-11.9-12.6-23.8-25.5-35.7-38.7V142c0,13.3,0.4,24.8,0.4,30.4c-0.2,5.3-1.8,10.6-4.6,15.1c-1.9,2.6-3.3,3.3-4.8,3.3
	c-1.7,0-3.8-1-8.8-6.2c-8.1-7.8-10.3-10.6-10.3-12c0-1.2,0.7-1.4,1.7-1.6c5.1,0.7,10.3,1.3,13.3,1.4V88.4c0-7.2-1-13.8-1.9-16.2
	c-0.5-1.2-0.8-2.5-0.9-3.8c0-0.9,0.7-1.3,2.2-1.3c4.4,0.5,8.7,1.7,12.8,3.6c2.9,1.6,3.9,2.8,3.9,3.9c-0.1,1.7-0.5,3.4-1.3,4.9
	c-1.1,2.8-1.6,5.7-1.6,8.7L133.5,109z"/>
</svg>
