<svg id="Layer_1" data-name="Layer 1" xmlns="http://www.w3.org/2000/svg" viewBox="0 0 257.95 257.95"><defs><style>.cls-1{fill:#8b7347;}.cls-2{fill:#fff;}</style></defs><circle class="cls-1" cx="128.98" cy="128.98" r="127.56"/><path class="cls-2" d="M120.86,94.19c0-11.16-.58-15.52-2-18.85a8.51,8.51,0,0,1-.73-2.76,1.9,1.9,0,0,1,2-2c1.89,0,11.46,2.76,15.66,5.22A4,4,0,0,1,138,79.11a8.79,8.79,0,0,1-1,3.48c-1.3,2.61-2,6.24-2.17,13l-.29,19c4.2-.44,8.12-.87,11.6-1.16a32.62,32.62,0,0,0,9.57-2.61c7.54,1.16,13.34,5.36,13.34,8.7,0,2.61-1.45,3.92-6.23,4.06-9.14.29-18.86.87-28.43,1.6l-.58,36.11c10.3-.58,20.3-1,29.73-1.31,3.34-.14,8.12-.72,11.31-2,9.43,2,16.1,6.82,16.1,11.17,0,2.46-1.74,3.91-5.37,3.91a312.78,312.78,0,0,0-34.95-1.59c-19,0-46.84,2.32-74,5.94-1.74,0-2.46-.14-4.93-2.75-4.2-4.64-4.64-5.66-4.64-6.82,0-.87,1.16-1.16,2.61-1.3,17.41-1.89,34.66-3.34,51.2-4.35V126.39c-8.85.87-17.41,1.88-25.53,3-1.45,0-2.9-.72-4.78-3.19-2.9-3.77-3.48-5.22-3.48-6.23s.58-1.31,2.61-1.45c11.16-.87,21.75-1.74,31.18-2.62Z"/></svg>