<?xml version="1.0" encoding="utf-8"?>
<!-- Generator: Adobe Illustrator 24.3.0, SVG Export Plug-In . SVG Version: 6.00 Build 0)  -->
<svg version="1.1" id="facebook_logo" xmlns="http://www.w3.org/2000/svg" xmlns:xlink="http://www.w3.org/1999/xlink" x="0px"
	 y="0px" viewBox="0 0 122.9 122.9" style="enable-background:new 0 0 122.9 122.9;" xml:space="preserve">
<style type="text/css">
	.st0{fill:#FFFFFF;}
</style>
<path class="st0" d="M61.4,3.5C30.1,3.6,4.7,29,4.7,60.4c0,23.8,14.9,45,37.2,53.3V77.6H31.5V62.1h10.3v-7.7
	c0-10,8.1-18.1,18.1-18.1h12.9v15.5H59.9c-1.4,0-2.6,1.2-2.6,2.6v7.7h15.5l-2.6,15.5H57.3V117c1.4,0.1,2.7,0.2,4.1,0.2
	c31.4-0.4,56.4-26.2,56-57.5C117.1,28.8,92.2,4,61.4,3.5L61.4,3.5z"/>
</svg>
