<?xml version="1.0" encoding="utf-8"?>
<!-- Generator: Adobe Illustrator 24.3.0, SVG Export Plug-In . SVG Version: 6.00 Build 0)  -->
<svg version="1.1" id="instagram_logo" xmlns="http://www.w3.org/2000/svg" xmlns:xlink="http://www.w3.org/1999/xlink" x="0px"
	 y="0px" viewBox="0 0 122.9 122.9" style="enable-background:new 0 0 122.9 122.9;" xml:space="preserve">
<style type="text/css">
	.st0{fill:#FFFFFF;}
</style>
<path class="st0" d="M61.4,3.5C30.1,3.5,4.7,29,4.7,60.3c0,31.4,25.4,56.8,56.8,56.8s56.8-25.4,56.8-56.8
	C118.2,29,92.8,3.5,61.4,3.5z M61.4,88.1c-15.2,0-27.6-12.3-27.6-27.5c0-15.2,12.3-27.6,27.6-27.6v0C76.7,32.9,89,45.2,89,60.5
	C89,75.7,76.7,88.1,61.4,88.1z M91.3,36.1c-3,0-5.5-2.5-5.5-5.5c0-3.1,2.5-5.5,5.5-5.5c3,0,5.5,2.5,5.5,5.5
	C96.8,33.7,94.4,36.1,91.3,36.1z"/>
<path class="st0" d="M62.3,43.9c-0.3,0-0.5,0-0.8,0c-9.1,0.2-16.4,7.8-16.1,17c0.2,8.8,7.3,15.9,16.1,16.1c9.1,0.2,16.7-7,17-16.1
	C78.6,51.7,71.4,44.1,62.3,43.9z"/>
</svg>
