<svg id="messenger_logo" data-name="Layer 1" xmlns="http://www.w3.org/2000/svg" viewBox="0 0 122.88 122.88">
    <defs>
        <style>.cls-1{fill:#414042;}.cls-2{fill:#fff;}</style>
    </defs>
    <path class="cls-1" d="M61.44,3.55a56.79,56.79,0,1,0,56.78,56.78A56.78,56.78,0,0,0,61.44,3.55ZM98.35,45.86,80.28,74.47A9.22,9.22,0,0,1,67,76.93L52.59,66.16a3.69,3.69,0,0,0-4.44,0L28.77,80.89A2.91,2.91,0,0,1,24.54,77L42.59,48.39a9.22,9.22,0,0,1,13.33-2.46L70.29,56.7a3.69,3.69,0,0,0,4.44,0L94.11,42A2.93,2.93,0,0,1,98.35,45.86Z"/>
    <path class="cls-2" d="M94.11,42,74.73,56.68a3.69,3.69,0,0,1-4.44,0L55.92,45.93a9.22,9.22,0,0,0-13.33,2.46L24.54,77a2.91,2.91,0,0,0,4.23,3.87L48.15,66.18a3.69,3.69,0,0,1,4.44,0L67,76.93a9.22,9.22,0,0,0,13.33-2.46L98.35,45.86A2.93,2.93,0,0,0,94.11,42Z"/>
    </svg>