<?xml version="1.0" encoding="utf-8"?>
<!-- Generator: Adobe Illustrator 24.3.0, SVG Export Plug-In . SVG Version: 6.00 Build 0)  -->
<svg version="1.1" id="messenger_logo" xmlns="http://www.w3.org/2000/svg" xmlns:xlink="http://www.w3.org/1999/xlink" x="0px"
	 y="0px" viewBox="0 0 122.9 122.9" style="enable-background:new 0 0 122.9 122.9;" xml:space="preserve">
<style type="text/css">
	.st0{fill:none;}
	.st1{fill:#FFFFFF;}
</style>
<path class="st0" d="M96.7,41.6L96.7,41.6C96.8,41.6,96.8,41.6,96.7,41.6z"/>
<path class="st0" d="M97.8,42.2c0.1,0,0.1,0.1,0.1,0.2C97.9,42.3,97.8,42.3,97.8,42.2z"/>
<path class="st0" d="M95.7,41.5C95.7,41.4,95.8,41.5,95.7,41.5C95.8,41.5,95.7,41.4,95.7,41.5z"/>
<path class="st0" d="M51.8,44.2c0.2,0,0.3,0.1,0.5,0.1C52.1,44.3,52,44.2,51.8,44.2z"/>
<path class="st0" d="M96.2,41.5c0.1,0,0.1,0,0.2,0C96.3,41.5,96.3,41.5,96.2,41.5z"/>
<path class="st0" d="M44.3,46.4c0.1-0.1,0.3-0.2,0.4-0.3C44.6,46.1,44.5,46.2,44.3,46.4z"/>
<path class="st0" d="M97.3,41.9c0.1,0.1,0.2,0.1,0.3,0.2C97.5,42,97.4,41.9,97.3,41.9z"/>
<path class="st0" d="M49.2,44.2c0.2,0,0.3,0,0.5,0C49.5,44.1,49.3,44.2,49.2,44.2z"/>
<path class="st0" d="M45.1,45.8c0.1-0.1,0.2-0.2,0.4-0.2C45.3,45.6,45.2,45.7,45.1,45.8z"/>
<path class="st0" d="M52.7,44.4c0.1,0,0.3,0.1,0.4,0.1C53,44.5,52.8,44.4,52.7,44.4z"/>
<path class="st0" d="M47.4,44.6c0.1,0,0.3-0.1,0.4-0.1C47.7,44.5,47.6,44.5,47.4,44.6z"/>
<path class="st0" d="M54.4,45c0.1,0.1,0.2,0.1,0.4,0.2C54.6,45.1,54.5,45.1,54.4,45z"/>
<path class="st0" d="M53.6,44.7c0.1,0,0.2,0.1,0.4,0.2C53.8,44.8,53.7,44.7,53.6,44.7z"/>
<path class="st0" d="M94.6,41.7C94.6,41.7,94.7,41.7,94.6,41.7C94.7,41.7,94.6,41.7,94.6,41.7z"/>
<path class="st0" d="M95.1,41.6L95.1,41.6C95.2,41.5,95.1,41.5,95.1,41.6z"/>
<path class="st0" d="M48.3,44.3c0.1,0,0.3-0.1,0.4-0.1C48.6,44.3,48.4,44.3,48.3,44.3z"/>
<path class="st0" d="M46.6,44.9c0.1-0.1,0.2-0.1,0.4-0.1C46.9,44.8,46.7,44.8,46.6,44.9z"/>
<path class="st0" d="M55.3,45.5L55.3,45.5c0.2,0.1,0.4,0.3,0.6,0.4C55.7,45.8,55.5,45.6,55.3,45.5z"/>
<path class="st0" d="M45.8,45.3c0.1-0.1,0.2-0.1,0.4-0.2C46.1,45.2,45.9,45.2,45.8,45.3z"/>
<path class="st0" d="M50,44.1c0.2,0,0.3,0,0.5,0C50.4,44.1,50.2,44.1,50,44.1z"/>
<path class="st0" d="M25.4,81c-1.4-0.9-1.8-2.7-0.9-4c-0.7,1-0.6,2.4,0.1,3.4c1,1.3,2.8,1.5,4.1,0.5l9.7-7.4l-9.7,7.4
	C27.8,81.6,26.5,81.7,25.4,81z"/>
<path class="st0" d="M67.6,77.3L67.6,77.3c-0.1-0.1-0.4-0.2-0.6-0.4C67.2,77.1,67.4,77.2,67.6,77.3z"/>
<path class="st0" d="M98.7,44.9c0,0.1,0,0.2-0.1,0.4C98.7,45.1,98.7,45,98.7,44.9z"/>
<path class="st0" d="M68.4,77.8L68.4,77.8L68.4,77.8z"/>
<path class="st0" d="M98.6,45.4c-0.1,0.2-0.1,0.3-0.2,0.5C98.4,45.7,98.5,45.5,98.6,45.4z"/>
<path class="st0" d="M50.9,44.1c0.2,0,0.3,0,0.5,0C51.2,44.1,51.1,44.1,50.9,44.1z"/>
<path class="st0" d="M98.7,43.7c0,0.1,0.1,0.3,0.1,0.4C98.7,44,98.7,43.8,98.7,43.7z"/>
<path class="st0" d="M98.2,42.7L98.2,42.7c0.1,0.1,0.2,0.3,0.2,0.4C98.4,42.9,98.3,42.8,98.2,42.7z"/>
<path class="st0" d="M43.7,47c0.1-0.1,0.2-0.2,0.4-0.4C43.9,46.7,43.8,46.9,43.7,47z"/>
<path class="st0" d="M98.5,43.2c0.1,0.1,0.1,0.2,0.1,0.4C98.6,43.4,98.6,43.3,98.5,43.2z"/>
<path class="st0" d="M43.1,47.7c0.1-0.1,0.2-0.3,0.3-0.4C43.3,47.4,43.2,47.6,43.1,47.7z"/>
<path class="st0" d="M98.7,44.2c0,0.2,0,0.3,0,0.5C98.7,44.5,98.8,44.4,98.7,44.2z"/>
<path class="st1" d="M61.4,3.5C30.1,3.5,4.6,29,4.6,60.3c0,31.4,25.4,56.8,56.8,56.8s56.8-25.4,56.8-56.8l0,0
	C118.2,29,92.8,3.5,61.4,3.5z M98.3,45.9l-18,28.6c-0.1,0.2-0.3,0.4-0.4,0.6c-2.7,3.6-7.6,4.7-11.5,2.7c0,0,0,0-0.1,0
	c-0.2-0.1-0.5-0.3-0.7-0.4c0,0,0,0-0.1,0c-0.2-0.1-0.4-0.2-0.6-0.4L52.6,66.2c-1.3-1-3.1-1-4.4,0l-9.7,7.3l-9.7,7.4
	c-1.3,1-3.1,0.8-4.1-0.5c-0.8-1-0.8-2.4-0.1-3.4l18.1-28.6c0.1-0.2,0.3-0.4,0.4-0.6c0,0,0,0,0.1-0.1s0.2-0.3,0.3-0.4
	c0.1-0.1,0.2-0.2,0.3-0.3s0.2-0.2,0.4-0.4c0.1-0.1,0.2-0.2,0.3-0.3s0.3-0.2,0.4-0.3c0.1-0.1,0.2-0.2,0.3-0.3s0.2-0.2,0.4-0.2
	c0.1-0.1,0.3-0.2,0.4-0.2c0.1-0.1,0.2-0.1,0.4-0.2c0.1-0.1,0.3-0.1,0.4-0.2c0.1-0.1,0.2-0.1,0.4-0.1c0.2-0.1,0.3-0.1,0.5-0.2
	c0.1,0,0.3-0.1,0.4-0.1c0.2,0,0.3-0.1,0.5-0.1c0.1,0,0.3-0.1,0.4-0.1c0.1,0,0.3-0.1,0.4-0.1c0.2,0,0.3,0,0.5,0c0.1,0,0.3,0,0.4,0
	c0.2,0,0.3,0,0.5,0c0.1,0,0.3,0,0.4,0c0.2,0,0.3,0,0.5,0c0.1,0,0.3,0,0.4,0c0.2,0,0.3,0.1,0.5,0.1c0.1,0,0.3,0.1,0.4,0.1
	c0.1,0,0.3,0.1,0.4,0.1c0.2,0,0.3,0.1,0.5,0.1c0.1,0,0.2,0.1,0.4,0.2c0.2,0.1,0.3,0.1,0.5,0.2c0.1,0.1,0.2,0.1,0.4,0.2
	c0.2,0.1,0.3,0.2,0.5,0.3h0.1c0.2,0.1,0.4,0.3,0.6,0.4l14.4,10.8c1.3,1,3.1,1,4.4,0L94.1,42c0.1-0.1,0.3-0.2,0.5-0.3
	c0,0,0.1,0,0.1-0.1c0.1,0,0.2-0.1,0.4-0.1h0.1c0.2,0,0.3-0.1,0.5-0.1h0.1c0.1,0,0.3,0,0.4,0s0.1,0,0.2,0s0.2,0.1,0.4,0.1h0.1
	c0.1,0.1,0.3,0.1,0.4,0.2l0,0c0.1,0.1,0.2,0.1,0.3,0.2c0.1,0,0.1,0.1,0.2,0.1s0.1,0.1,0.1,0.2c0.1,0.1,0.2,0.2,0.3,0.3l0,0
	c0.1,0.1,0.2,0.3,0.2,0.4c0,0,0,0.1,0.1,0.1c0.1,0.1,0.1,0.2,0.1,0.4v0.1c0,0.1,0.1,0.3,0.1,0.4V44c0,0.2,0,0.3,0,0.5v0.1
	c0,0.1,0,0.2-0.1,0.4c0,0.1,0,0.1,0,0.2C98.5,45.5,98.4,45.7,98.3,45.9z"/>
<path class="st1" d="M48.7,44.3c0.1,0,0.3-0.1,0.4-0.1C49,44.2,48.9,44.2,48.7,44.3z"/>
<path class="st1" d="M47.8,44.5c0.2,0,0.3-0.1,0.5-0.1C48.1,44.4,48,44.4,47.8,44.5z"/>
<path class="st1" d="M44.7,46c0.1-0.1,0.2-0.2,0.3-0.3C44.9,45.9,44.8,46,44.7,46z"/>
<path class="st1" d="M43.4,47.3c0.1-0.1,0.2-0.2,0.3-0.3C43.6,47.1,43.5,47.2,43.4,47.3z"/>
<path class="st1" d="M43,47.8c-0.1,0.2-0.3,0.4-0.4,0.6C42.7,48.2,42.9,47.9,43,47.8C43.1,47.7,43,47.8,43,47.8z"/>
<path class="st1" d="M47,44.7c0.2-0.1,0.3-0.1,0.5-0.2C47.3,44.6,47.1,44.7,47,44.7z"/>
<path class="st1" d="M68.3,77.8c-0.2-0.1-0.5-0.3-0.7-0.4C67.9,77.5,68.1,77.6,68.3,77.8z"/>
<path class="st1" d="M46.2,45.1c0.1-0.1,0.3-0.1,0.4-0.2C46.5,45,46.3,45,46.2,45.1z"/>
<path class="st1" d="M44,46.6c0.1-0.1,0.2-0.2,0.3-0.3C44.2,46.4,44.1,46.5,44,46.6z"/>
<path class="st1" d="M45.4,45.5c0.1-0.1,0.3-0.2,0.4-0.2C45.7,45.4,45.6,45.5,45.4,45.5z"/>
<path class="st1" d="M51.4,44.2c0.1,0,0.3,0,0.4,0C51.7,44.2,51.5,44.2,51.4,44.2z"/>
<path class="st1" d="M98.6,43.6L98.6,43.6C98.7,43.7,98.6,43.6,98.6,43.6z"/>
<path class="st1" d="M98.4,43.1C98.4,43.1,98.4,43.2,98.4,43.1C98.5,43.2,98.5,43.1,98.4,43.1z"/>
<path class="st1" d="M98.7,44.1C98.7,44.2,98.7,44.2,98.7,44.1C98.7,44.2,98.7,44.2,98.7,44.1z"/>
<path class="st1" d="M97.6,42.1c0.1,0,0.1,0.1,0.2,0.1C97.7,42.2,97.7,42.1,97.6,42.1z"/>
<path class="st1" d="M97.9,42.4c0.1,0.1,0.2,0.2,0.3,0.3C98.1,42.5,98,42.5,97.9,42.4z"/>
<path class="st1" d="M98.6,45.4c0,0,0-0.1,0-0.2C98.6,45.3,98.6,45.3,98.6,45.4z"/>
<path class="st1" d="M98.7,44.7L98.7,44.7C98.7,44.8,98.7,44.8,98.7,44.7z"/>
<path class="st1" d="M97.3,41.9c-0.1-0.1-0.3-0.1-0.4-0.2C97,41.7,97.2,41.8,97.3,41.9L97.3,41.9z"/>
<path class="st1" d="M68.4,77.8c3.9,2,8.8,0.9,11.5-2.7c0.1-0.2,0.3-0.4,0.4-0.6l18-28.6l-18,28.6C77.7,78.5,72.6,79.9,68.4,77.8z"
	/>
<path class="st1" d="M48.2,66.2l-9.7,7.4L48.2,66.2c1.3-1,3.1-1,4.4,0L67,76.9L52.6,66.2C51.3,65.2,49.5,65.2,48.2,66.2z"/>
<path class="st1" d="M49.6,44.1c0.1,0,0.3,0,0.4,0C49.9,44.1,49.8,44.1,49.6,44.1z"/>
<path class="st1" d="M53.9,44.8c0.2,0.1,0.3,0.1,0.5,0.2C54.3,44.9,54.1,44.9,53.9,44.8z"/>
<path class="st1" d="M53.1,44.5c0.2,0,0.3,0.1,0.5,0.1C53.4,44.6,53.3,44.6,53.1,44.5z"/>
<path class="st1" d="M54.8,45.2c0.2,0.1,0.3,0.2,0.5,0.3C55.1,45.4,54.9,45.3,54.8,45.2z"/>
<path class="st1" d="M52.3,44.3c0.1,0,0.3,0.1,0.4,0.1C52.5,44.3,52.4,44.3,52.3,44.3z"/>
<path class="st1" d="M96.4,41.5c0.1,0,0.2,0.1,0.4,0.1C96.6,41.6,96.5,41.5,96.4,41.5z"/>
<path class="st1" d="M50.5,44.1c0.1,0,0.3,0,0.4,0C50.8,44.1,50.6,44.1,50.5,44.1z"/>
<path class="st1" d="M95.2,41.5c0.2,0,0.3-0.1,0.5-0.1C95.5,41.5,95.4,41.5,95.2,41.5z"/>
<path class="st1" d="M95.8,41.5c0.1,0,0.3,0,0.4,0C96.1,41.5,95.9,41.5,95.8,41.5z"/>
<path class="st1" d="M94.7,41.7c0.1,0,0.2-0.1,0.4-0.1C95,41.6,94.8,41.6,94.7,41.7z"/>
<path class="st1" d="M94.1,42c0.1-0.1,0.3-0.2,0.5-0.3C94.4,41.8,94.3,41.9,94.1,42z"/>
</svg>
