<?xml version="1.0" encoding="utf-8"?>
<!-- Generator: Adobe Illustrator 24.3.0, SVG Export Plug-In . SVG Version: 6.00 Build 0)  -->
<svg version="1.1" id="zenshiatsu_logo" xmlns="http://www.w3.org/2000/svg" xmlns:xlink="http://www.w3.org/1999/xlink" x="0px"
	 y="0px" viewBox="0 0 170.1 170.1" style="enable-background:new 0 0 170.1 170.1;" xml:space="preserve">
<style type="text/css">
	.st0{fill:#1A1A1A;}
</style>
<path class="st0" d="M215.4,116.2c4.5-0.2,9.4-0.4,14.9-0.4c6.8,0,12.7,0.2,18.1,0.6c1.3-3.2,2.4-6.4,3.3-9.7
	c-6.7,1.1-13.3,2.8-19.8,5C226.5,113.5,221,115,215.4,116.2z"/>
<path class="st0" d="M110.2,137.8c29.2,34.5,80.8,38.9,115.3,9.7c3.2-2.7,6.2-5.6,8.9-8.8c-14.8,1.8-32.7,3.2-58.8,3.2
	C145.6,141.9,126.3,140.1,110.2,137.8z"/>
<path class="st0" d="M143.6,93.1c-20.7-0.7-32.6-3.6-44.2-6.4c-2.7-0.7-5.5-1.3-8.4-2V85c0,5.9,0.6,11.8,1.9,17.6
	c6.7-1.1,12.3-2.5,17.9-3.8C121.5,96,132.5,94.1,143.6,93.1z"/>
<path class="st0" d="M150.1,110c10,3.2,20.3,6.5,40.7,6.5s30.6-3.3,40.7-6.5c5.2-1.8,10.5-3.2,15.9-4.4c-9.3-1.1-18.5-2.8-27.5-5.2
	c-13.4-3.2-27.2-6.5-54.3-6.5s-41,3.3-54.4,6.5c-5.2,1.2-10.5,2.5-16.6,3.6c4.2-0.4,9-0.6,14.4-0.6C129.5,103.5,140,106.8,150.1,110
	z"/>
<path class="st0" d="M236.1,136.8c4.7-5.7,8.5-12,11.5-18.7c-5.1-0.3-10.9-0.5-17.4-0.5c-27.2,0-41,3.3-54.3,6.5
	c-13.4,3.2-27.4,6.6-54.7,6.6c-6.2,0-11.7-0.2-16.7-0.5c1.3,2,2.7,3.9,4.1,5.7c16.4,2.3,35.9,4.3,67.1,4.3
	C202.8,140.1,221.1,138.7,236.1,136.8z"/>
<path class="st0" d="M121.2,128.9c27.2,0,41-3.3,54.3-6.5c6.1-1.5,12.4-3,19.9-4.2c-1.5,0-3.1,0.1-4.7,0.1c-20.6,0-31-3.3-41.2-6.6
	s-20.3-6.5-40.7-6.5c-5.1,0-10.2,0.2-15.3,0.7c2.1,7.9,5.4,15.5,9.7,22.4C108.6,128.7,114.5,128.9,121.2,128.9z"/>
<path class="st0" d="M154.1,91.5c27.2,0,41-3.3,54.3-6.5c11.9-2.9,24.2-5.8,45.9-6.4c-3.6-45-43-78.7-88-75.1
	C124.5,6.8,92,41.1,91,83c3,0.7,5.9,1.4,8.8,2C113.1,88.2,126.9,91.5,154.1,91.5z"/>
<path class="st0" d="M175.9,92.4c20.7,0.7,32.6,3.6,44.2,6.4c10.5,2.7,21.2,4.6,32.1,5.6c1.6-6.4,2.3-12.9,2.3-19.4
	c0-1.6-0.1-3.2-0.1-4.7c-21.6,0.6-33.8,3.6-45.6,6.4C198,89.5,187,91.4,175.9,92.4z"/>
</svg>
