<?xml version="1.0" encoding="utf-8"?>
<!-- Generator: Adobe Illustrator 24.3.0, SVG Export Plug-In . SVG Version: 6.00 Build 0)  -->
<svg version="1.1" id="zenshiatsu_logo" xmlns="http://www.w3.org/2000/svg" xmlns:xlink="http://www.w3.org/1999/xlink" x="0px"
	 y="0px" viewBox="0 0 170.1 170.1" style="enable-background:new 0 0 170.1 170.1;" xml:space="preserve">
<style type="text/css">
	.st0{opacity:0.4;fill:#B8BABC;}
	.st1{opacity:0.4;fill:none;stroke:#B8BABC;stroke-width:3;stroke-miterlimit:10;}
</style>
<path class="st0" d="M108.8,135.8c0.5,0.7,1.1,1.3,1.6,2c16,2.2,35.2,4,65.2,4c25.9,0,43.8-1.3,58.5-3.1c0.6-0.6,1.1-1.3,1.7-2
	c-15,1.9-33.2,3.4-60.2,3.4C144.7,140,125.2,138.1,108.8,135.8z"/>
<path class="st0" d="M220.2,98.7c-11.6-2.8-23.6-5.7-44.2-6.4c11.1-1,22.1-2.9,32.9-5.8c11.8-2.8,24-5.8,45.5-6.4
	c0-0.6-0.1-1.1-0.1-1.7c-21.6,0.6-33.8,3.6-45.7,6.4c-13.3,3.2-27.2,6.5-54.3,6.5c-27.2,0-41-3.3-54.4-6.5c-2.8-0.6-5.7-1.3-8.6-2
	c0,0.6,0,1.1,0,1.7c2.8,0.7,5.6,1.3,8.2,2c11.6,2.8,23.6,5.7,44.2,6.4c-11.1,1-22.1,2.9-32.9,5.7c-5.5,1.3-11.1,2.7-17.7,3.8
	c0.2,1.1,0.5,2.2,0.8,3.4c5-0.5,10.1-0.7,15.1-0.7c20.3,0,30.5,3.3,40.7,6.5c10.2,3.2,20.6,6.6,41.2,6.6c1.6,0,3.2-0.1,4.7-0.1
	c-7.5,1.2-13.8,2.7-19.9,4.2c-13.3,3.2-27.2,6.5-54.3,6.5c-6.6,0-12.5-0.2-17.7-0.5c0.4,0.6,0.8,1.2,1.2,1.8
	c4.9,0.3,10.4,0.5,16.5,0.5c27.4,0,41.4-3.4,54.7-6.6c13.3-3.2,27.2-6.5,54.3-6.5c6.4,0,12.1,0.2,17.2,0.5c0.2-0.6,0.5-1.1,0.7-1.7
	c-5.3-0.4-11.2-0.6-17.9-0.6c-5.5,0-10.4,0.1-14.9,0.4c5.6-1.2,11.1-2.7,16.5-4.5c6.4-2.2,12.9-3.8,19.6-5c0.2-0.8,0.4-1.5,0.6-2.3
	C241.3,103.3,230.6,101.4,220.2,98.7z M231.4,109.9c-10,3.2-20.3,6.5-40.7,6.5s-30.7-3.3-40.7-6.5c-10.1-3.2-20.6-6.6-41.2-6.6
	c-5.4,0-10.2,0.2-14.4,0.6c6.1-1.1,11.4-2.4,16.6-3.6c13.4-3.2,27.2-6.5,54.4-6.5c27.2,0,41,3.3,54.3,6.5c9,2.3,18.2,4.1,27.5,5.2
	C241.9,106.7,236.6,108.2,231.4,109.9z"/>
<circle class="st1" cx="172.7" cy="84.6" r="81.7"/>
</svg>
